<svg xmlns="http://www.w3.org/2000/svg"  viewBox="0 0 48 48" width="48px" height="48px"><path d="M36.5,6h-25C8.467,6,6,8.468,6,11.5v25c0,3.032,2.467,5.5,5.5,5.5h25c3.033,0,5.5-2.468,5.5-5.5v-25	C42,8.468,39.533,6,36.5,6z M23.5,35c-2.209,0-4.434-0.57-6.169-1.17C17.13,33.761,17,33.571,17,33.358v-4.661	c0-0.179,0.18-0.302,0.344-0.231c1.167,0.502,3.268,1.294,5.333,1.511c0.947,0.099,1.876-0.005,2.399-0.547	c0.182-0.189,0.423-0.574,0.423-1.157c0-0.447-0.087-1.494-2.534-2.214C20.764,25.442,16.5,24.022,16.5,19.5	c0-2.998,2.095-6.5,8-6.5c2.209,0,4.434,0.57,6.169,1.17C30.87,14.239,31,14.429,31,14.642v4.652c0,0.18-0.181,0.302-0.345,0.23	c-1.162-0.508-3.256-1.304-5.321-1.487c-0.934-0.119-1.95-0.029-2.446,0.459c-0.161,0.158-0.388,0.477-0.388,0.943	c0,0.383,0.012,1.238,2.489,1.991c4.321,1.261,6.511,3.553,6.511,6.819C31.5,31.364,29.405,35,23.5,35z"/></svg>